<svg width="0" height="0" class="hidden">
  <symbol viewBox="0 0 34 30" fill="none" xmlns="http://www.w3.org/2000/svg" id="Group 43">
    <path d="M22.426 9.433l-4.845-1.454a3.426 3.426 0 0 0-1.108-.133v-.013h-5.89L.14 4.363l.03 14.675 2.998 1.498 1.775-4.34 2.593 1.038.673-1.68.973.974-.908.908a1.695 1.695 0 0 0 1.14 2.89 1.692 1.692 0 0 0 1.63 1.63 1.693 1.693 0 0 0 1.63 1.63 1.695 1.695 0 0 0 1.69 1.636c.446 0 .883-.18 1.199-.497l.909-.908.365.365c.316.316.752.497 1.199.497.915 0 1.658-.73 1.69-1.636a1.693 1.693 0 0 0 1.63-1.63 1.692 1.692 0 0 0 1.63-1.63 1.695 1.695 0 0 0 1.637-1.69c0-.078-.013-.154-.023-.23l.78-.78.63 1.26 3.413-1.706 2.063 3.938 2.374-1.583V4.947L22.426 9.433zM2.606 19.04l-1.349-.675L1.23 5.87l5.954 1.98-4.578 11.19zm4.326-3.219l-1.577-.63 2.863-6.998 1.558.518-2.844 7.11zm1.933 2.815c0-.16.065-.318.178-.431l.956-.956a.61.61 0 0 1 .862.862l-.956.956a.61.61 0 0 1-1.04-.43zm1.63 1.63c0-.16.065-.317.178-.431l.956-.955a.61.61 0 0 1 .862.862l-.956.955a.61.61 0 0 1-1.04-.43zm1.63 1.63c0-.16.065-.317.178-.431l.956-.955a.61.61 0 0 1 .862.862l-.956.955a.61.61 0 0 1-1.04-.43zm3.626 1.106l-.955.955a.61.61 0 0 1-.862-.862l.955-.955a.61.61 0 0 1 .862.862zm7.177-4.3a.613.613 0 0 1-.431-.179l-4.553-4.553-.769.768 4.553 4.553a.61.61 0 0 1-.862.862L16.313 15.6l-.768.769 4.553 4.553a.61.61 0 0 1-.862.862l-4.553-4.554-.768.769 4.553 4.553a.61.61 0 0 1-.862.862l-.613-.613c.011-.076.023-.152.023-.23 0-.915-.73-1.658-1.636-1.69a1.692 1.692 0 0 0-1.63-1.63 1.692 1.692 0 0 0-1.63-1.63 1.695 1.695 0 0 0-1.69-1.637c-.078 0-.154.013-.23.023l-1.552-1.551 2.215-5.536h3.211l-1.995 1.996a1.698 1.698 0 0 0 2.398 2.398l1.44-1.44a.836.836 0 0 1 1.12-.024l1.27 1.165c.422.387.891.708 1.393.96l3.659 3.686a.61.61 0 0 1-.43 1.04zm1.152-1.856l-2.233-2.25c.2.018.4.03.603.03v-1.087a5.032 5.032 0 0 1-3.408-1.326l-1.27-1.164c-.718-.658-1.935-.632-2.623.057l-1.44 1.44a.61.61 0 0 1-.863-.862l2.072-2.071a2.38 2.38 0 0 1 2.35-.593l4.8 1.44 2.8 5.599-.788.787zm2.417.04l-3.295-6.59 2.406-.944 3.312 6.322-2.423 1.211zm6.278 1.525l-.886.59-5.263-10.048 6.149-2.412v11.87z"
      fill="#E3B873"></path>
    <circle cx="19.667" cy="1.574" r=".486" fill="#E3B873"></circle>
    <circle cx="7.41" cy="24.503" r=".486" fill="#E3B873"></circle>
    <circle cx="9.468" cy="26.192" r=".486" fill="#E3B873"></circle>
    <circle cx="11.817" cy="27.43" r=".486" fill="#E3B873"></circle>
    <circle cx="14.366" cy="28.223" r=".486" fill="#E3B873"></circle>
    <circle cx="22.214" cy="2.347" r=".486" fill="#E3B873"></circle>
    <circle cx="24.563" cy="3.601" r=".486" fill="#E3B873"></circle>
    <path d="M26.83 2.9v2.8h-2.833M5.01 24.186V21.92h2.264" stroke="#E3B873" stroke-linecap="round" stroke-linejoin="round"></path>
    <path d="M7.8 4.882c1.536-1.335 2.512-1.95 4.352-2.668 1.951-.762 3.272-.941 5.392-.941M28.405 22.37c-1.142 1.781-3.267 3.52-4.996 4.474-1.834 1.012-3.799 1.583-6.416 1.72" stroke="#E3B873" stroke-linecap="round"></path>
  </symbol>
  <symbol viewBox="0 0 29 29" fill="none" xmlns="http://www.w3.org/2000/svg" id="Vector(2)">
    <path d="M27.168 22.137l-2.378-.528v-.684a3.27 3.27 0 0 0 1.404-2.683v-.935a3.276 3.276 0 0 0-2.807-3.237v-2.225l-4.322-1.73.667-.667-.668-1.001a5.16 5.16 0 0 0 .336-.81l1.18-.237V4.762l-1.18-.237a5.134 5.134 0 0 0-.335-.81l.668-1.002L17.868.848l-1.002.669a5.093 5.093 0 0 0-.81-.336L15.819 0H13.18l-.236 1.18c-.28.089-.55.202-.81.336L11.133.848 9.268 2.713l.668 1.002a5.09 5.09 0 0 0-.336.81l-1.18.237V7.4l1.18.236c.088.28.201.55.335.81l-.668 1.002.668.667-4.322 1.73v2.225a3.276 3.276 0 0 0-2.807 3.236v.936c0 1.11.557 2.09 1.404 2.683v.683l-2.378.529A2.325 2.325 0 0 0 0 24.42V29h29v-4.58a2.324 2.324 0 0 0-1.832-2.283zm-3.313-.282c-.116.18-.438.597-.936.597-.497 0-.82-.418-.935-.597v-.476a3.27 3.27 0 0 0 1.87 0v.476zm1.403-4.549v.936c0 1.29-1.05 2.339-2.339 2.339a2.342 2.342 0 0 1-2.338-2.34v-.934c0-1.29 1.049-2.34 2.338-2.34 1.29 0 2.34 1.05 2.34 2.34zm-2.806-4.828v1.592a3.276 3.276 0 0 0-2.807 3.236v.936c0 1.11.556 2.09 1.403 2.683v.683l-2.338.52-2.339-.52v-.683a3.27 3.27 0 0 0 1.403-2.683v-.936a3.276 3.276 0 0 0-2.806-3.236v-1.91h.85l.237-1.18c.28-.089.55-.201.81-.336l1.002.668.478-.477 4.107 1.642zm-2.807 15.586H9.355V24.42c0-.663.452-1.226 1.099-1.37l2.428-.54c.268.354.8.877 1.618.877.818 0 1.35-.523 1.617-.877l2.43.54a1.395 1.395 0 0 1 1.098 1.37v3.644zM14.5 14.968a2.341 2.341 0 0 1 2.339 2.338v.936c0 1.29-1.05 2.339-2.339 2.339a2.341 2.341 0 0 1-2.339-2.34v-.934c0-1.29 1.05-2.34 2.339-2.34zm0 6.548c.325 0 .639-.049.935-.138v.477c-.116.18-.438.597-.935.597-.497 0-.82-.418-.935-.597v-.476c.296.088.61.137.935.137zM9.355 6.633V5.529l.997-.2.073-.285c.1-.392.254-.766.46-1.111l.15-.254-.564-.846.78-.78.847.564.254-.152a4.17 4.17 0 0 1 1.11-.46l.286-.072.2-.998h1.104l.2.998.285.072c.392.1.766.255 1.11.46l.254.151.847-.564.78.78-.564.847.151.253c.206.346.36.72.46 1.111l.073.286.997.2v1.104l-.997.2-.073.285c-.1.392-.254.765-.46 1.11l-.15.254.564.847-.78.78-.847-.564-.254.15a4.17 4.17 0 0 1-1.11.46l-.286.073-.2.998h-1.104l-.2-.997-.285-.073a4.184 4.184 0 0 1-1.11-.46l-.254-.15-.847.564-.78-.781.564-.847-.151-.253a4.17 4.17 0 0 1-.46-1.111l-.073-.285-.997-.2zm1.3 4.202l.478.478 1.002-.668c.26.135.53.247.81.335l.236 1.181h.851v1.909a3.276 3.276 0 0 0-2.806 3.236v.936c0 1.11.556 2.09 1.403 2.683v.683l-2.339.52-2.338-.52v-.683a3.27 3.27 0 0 0 1.403-2.683v-.936a3.276 3.276 0 0 0-2.807-3.236v-1.592l4.107-1.643zm-6.913 7.407v-.936a2.342 2.342 0 0 1 2.339-2.338 2.34 2.34 0 0 1 2.338 2.338v.936a2.341 2.341 0 0 1-2.338 2.339 2.341 2.341 0 0 1-2.34-2.34zm2.339 3.274c.325 0 .639-.049.935-.138v.477c-.116.18-.438.597-.935.597-.498 0-.821-.42-.936-.597v-.477c.297.089.61.138.936.138zM.935 24.42c0-.663.452-1.226 1.1-1.37l2.428-.54c.268.354.8.877 1.618.877.818 0 1.35-.523 1.617-.877l1.366.304a2.32 2.32 0 0 0-.645 1.606v3.644H.935V24.42zm27.13 3.644H20.58V24.42c0-.621-.244-1.185-.645-1.606l1.366-.304c.267.354.8.877 1.617.877.818 0 1.35-.523 1.618-.877l2.429.54a1.395 1.395 0 0 1 1.098 1.37v3.644z"
      fill="#E3B873"></path>
  </symbol>
  <symbol viewBox="0 0 28 29" fill="none" xmlns="http://www.w3.org/2000/svg" id="Vector (1)">
    <path d="M27.68 22.613l-8.4-8.4 3.313-3.313 1.96-1.96L27.4 6.092c.793-.793.793-2.1 0-2.893L25.02.82a2.048 2.048 0 0 0-1.447-.607c-.56 0-1.073.233-1.447.607L19.28 3.666l-1.96 1.96-3.314 3.314L5.7.633C5.186.12 4.253.12 3.74.633L.426 3.946c-.56.514-.56 1.4 0 1.96l.98.98 2.66 2.66L6.68 12.16l2.053 2.053-7.491 7.491c-.14.062-.215.188-.256.349l-.98 5.6c0 .187.047.327.14.42.094.093.187.14.327.14h.093l5.384-.995c.037.01.077.015.123.015.14 0 .28-.047.327-.14l7.606-7.607.607.607L15.92 21.4l6.486 6.486c.234.234.514.327.794.327s.56-.093.746-.327l3.734-3.733c.42-.42.42-1.12 0-1.54zM6.073 26.066L4.44 24.433l15.516-15.47 1.61 1.61L6.073 26.066zM22.78 1.473c.42-.42 1.166-.42 1.586 0l2.38 2.38c.42.42.42 1.167 0 1.587l-2.52 2.52-3.966-3.967 2.52-2.52zm-3.174 3.173L21.59 6.63l1.983 1.983-1.307 1.307L18.3 5.953l1.306-1.307zM8.99 13.163l1.003-1.004a.451.451 0 0 0 0-.653.451.451 0 0 0-.653 0L8.336 12.51l-.676-.676L9.293 10.2a.451.451 0 0 0 0-.654.451.451 0 0 0-.653 0L7.006 11.18l-.653-.654.98-.98a.451.451 0 0 0 0-.653.451.451 0 0 0-.653 0l-.98.98-.654-.654L6.68 7.586a.451.451 0 0 0 0-.653.451.451 0 0 0-.654 0L4.393 8.566l-.7-.7.98-.98a.451.451 0 0 0 0-.653.451.451 0 0 0-.653 0l-.98.98-.654-.653L4.02 4.926a.451.451 0 0 0 0-.653.451.451 0 0 0-.654 0L1.733 5.906l-.653-.653a.451.451 0 0 1 0-.653l3.313-3.314a.424.424 0 0 1 .327-.14c.093 0 .233.047.326.14l8.307 8.307-3.967 3.966-.396-.396zm8.656-6.51l1.633 1.633-15.516 15.47-1.61-1.61L17.646 6.653zM1.78 23.08l1.53 1.53a.484.484 0 0 0 .103.15L5.1 26.445l-4.02.694.7-4.06zm25.246.42l-3.733 3.733c-.047.046-.187.046-.233 0l-4.83-4.83 1.656-1.657a.451.451 0 0 0 0-.653.451.451 0 0 0-.653 0l-1.657 1.657-.676-.677.98-.98a.451.451 0 0 0 0-.654.451.451 0 0 0-.654 0l-.98.98-.653-.653 1.633-1.633a.451.451 0 0 0 0-.653.451.451 0 0 0-.653 0l-1.633 1.633-.28-.28 3.966-3.967 8.4 8.4c.047.047.047.187 0 .234z"
      fill="#E3B873"></path>
  </symbol>
  <symbol viewBox="0 0 28 28" fill="none" xmlns="http://www.w3.org/2000/svg" id="Vector">
    <path d="M26.406 21.143a3.688 3.688 0 0 0-1.931-.665c-2.555-1.673-4.229-2.929-5.206-3.906l-3.002-3.001 1.822-2.04c.345.196.716.324 1.087.377.28.047.466.047.653.047.373 0 .466 0 .84.326a.752.752 0 0 0-.28.606c0 .234.093.514.28.7L22.3 15.22c.233.28.606.42.98.42.373 0 .746-.14.979-.467l3.312-3.312c.28-.233.42-.606.42-.98 0-.372-.14-.699-.42-.979L25.939 8.27a.921.921 0 0 0-.653-.28c-.233 0-.466.14-.653.28-.373-.327-.373-.42-.373-.793 0-.187 0-.42-.093-.7a3.265 3.265 0 0 0-.933-1.819l-1.68-1.68c-.979-.979-1.445-1.445-2.705-2.005-2.705-1.26-5.457-1.026-9.468.793-.233.094-.327.28-.28.513a.454.454 0 0 0 .466.374h.607c2.052 0 3.125 0 4.99 1.865.817.817.841 2.07.109 2.991a.427.427 0 0 0-.248.134l-2.072 2.313-1.567-1.566C9.665 6.968 8.454 5.34 7.522 3.526a3.694 3.694 0 0 0-1.08-2.44C5.65.295 4.53-.078 3.41.015c-.14.047-.28.14-.326.233a.424.424 0 0 0 0 .467L4.39 3.046c-.28.606-.933.98-1.586.933l-1.353-2.24c-.046-.14-.233-.232-.373-.232-.14-.047-.28.046-.373.186a3.674 3.674 0 0 0 .98 5.084c.578.413 1.23.643 1.89.69l.022.01c1.819.933 3.452 2.145 5.177 3.871l1.706 1.667L.565 24.082c-.373.373-.56.886-.56 1.4 0 .512.187.979.56 1.352l.653.653c.373.326.84.513 1.306.513.467 0 .98-.186 1.353-.56l9.904-11.085 2.876 2.876c.979.979 2.237 2.702 3.913 5.217.06.898.428 1.736 1.078 2.386.7.7 1.633 1.073 2.612 1.073h.373c.14 0 .28-.094.373-.233a.424.424 0 0 0 0-.467l-1.352-2.285c.326-.607.933-.98 1.632-.933l1.306 2.239c.047.14.233.233.373.233.187-.047.327-.093.42-.233 1.12-1.68.653-3.919-.98-5.085zM15.77 4.072c-1.493-1.446-2.612-1.912-3.872-2.052 2.66-.84 4.618-.793 6.577.093 1.12.466 1.493.84 2.472 1.82l1.68 1.678c.373.373.606.84.652 1.306.047.233.047.42.047.56 0 .513.047.886.606 1.446.187.186.467.28.7.28.28 0 .513-.094.653-.28l1.633 1.632c.093.094.14.187.14.327s-.047.233-.14.326l-3.312 3.312a.451.451 0 0 1-.653 0l-1.633-1.633c.187-.14.28-.373.234-.652a1.03 1.03 0 0 0-.28-.7c-.56-.56-.933-.607-1.446-.607-.14 0-.327 0-.56-.046-.513-.047-.933-.28-1.306-.653l-2.006-2.006c1.027-1.26.933-3.032-.186-4.151zM1.125 2.952l.98 1.68c.093.14.233.233.373.233h.233c1.073.047 2.052-.513 2.519-1.446l.093-.233a.35.35 0 0 0 0-.42L4.297.994c.56.093 1.073.373 1.492.793.481.52.79 1.18.807 1.887a.48.48 0 0 0-.014.118c0 .216-.026.427-.074.63a2.86 2.86 0 0 1-1.185 1.656 2.822 2.822 0 0 1-3.125-.047 2.84 2.84 0 0 1-1.073-3.078zm8.302 7.743C8.028 9.25 6.63 8.13 5.137 7.244a5.82 5.82 0 0 0 .745-.373 3.674 3.674 0 0 0 1.446-1.82c.887 1.493 2.006 2.892 3.405 4.292l1.602 1.602-1.256 1.402-1.652-1.652zM3.224 26.741c-.373.373-.98.42-1.353.046l-.653-.606a.92.92 0 0 1-.28-.653c0-.28.094-.513.327-.746l.264-.296.669.669c.093.093.186.14.326.14s.233-.047.327-.14a.45.45 0 0 0 0-.653l-.706-.706.617-.69.742.743c.093.093.186.14.326.14s.233-.047.327-.14a.45.45 0 0 0 0-.653l-.779-.779L15.376 8.994l1.959 1.96-1.925 2.153a.479.479 0 0 0-.152.107l-1.866 2.099a.479.479 0 0 0-.114.178L3.224 26.741zm11.195-11.1l1.276-1.43 3.014 3.014c.84.887 2.286 2.006 4.385 3.405-.28.094-.56.234-.84.42-.578.362-.988.864-1.274 1.42l-.012.023a4.465 4.465 0 0 0-.157.345l-.006.015c-.015.036-.03.073-.043.11-.265-.39-.52-.756-.765-1.101l.625-.625a.451.451 0 0 0 0-.653.451.451 0 0 0-.653 0l-.52.52a39.845 39.845 0 0 0-.562-.745l.429-.428a.451.451 0 0 0 0-.653.45.45 0 0 0-.653 0l-.356.356a15.518 15.518 0 0 0-.95-1.056l-2.938-2.938zm12.5 9.327l-.98-1.679c-.093-.14-.233-.233-.373-.233h-.233c-1.073-.094-2.053.513-2.519 1.446l-.093.233a.35.35 0 0 0 0 .42l1.026 1.772a2.756 2.756 0 0 1-1.493-.793c-.472-.51-.777-1.155-.805-1.847a.484.484 0 0 0 .012-.112 2.804 2.804 0 0 1 1.26-2.332c.466-.326.98-.466 1.539-.466.56 0 1.12.186 1.586.513.98.7 1.4 1.959 1.073 3.078z"
      fill="#E3B873"></path>
  </symbol>
  <symbol viewBox="0 0 34 29" fill="none" xmlns="http://www.w3.org/2000/svg" id="Group">
    <path d="M32.851 9.766L8.731.829a.595.595 0 0 0-.765.353h-.001l-2.67 7.269a.596.596 0 0 0 .353.764l2.797 1.027-.616 1.678a.596.596 0 0 0 .354.765l5.592 2.053-.41 1.119a2.354 2.354 0 0 0 .848 2.746v3.04H6.197a2.987 2.987 0 0 0-2.13-1.727v-1.251a.596.596 0 0 0-.596-.596H1.07a.596.596 0 0 0-.595.596v9.532c0 .329.266.595.595.595h2.402c.33 0 .596-.266.596-.596v-1.25a2.987 2.987 0 0 0 2.13-1.728h8.016v.596a1.787 1.787 0 1 0 3.575 0v-6.6a2.36 2.36 0 0 0 1.168-1.302l.411-1.119L24.4 18.64a.593.593 0 0 0 .765-.354l.223-.608a3.571 3.571 0 0 0 3.92-4.97l3.611-1.855a.596.596 0 0 0-.065-1.09l-.003.003zm-17.446 9.38l.493.179c.224.08.46.127.698.137v2.181h-1.191v-2.497zm-12.53 8.455h-1.21v-8.34h1.21v8.34zm2.384-3.575a1.791 1.791 0 0 1-1.192 1.686V21.15a1.79 1.79 0 0 1 1.192 1.685v1.191zm1.21-1.191h10.127v1.191H6.47v-1.191zM16 26.409a.596.596 0 0 1-.595-.595v-.596h1.191v.596a.596.596 0 0 1-.596.595zm2.249-10.026l-.411 1.119a1.192 1.192 0 0 1-1.529.707l-1.12-.41a1.192 1.192 0 0 1-.708-1.53l.41-1.118 3.02 1.109.338.123zm6.003.935l-15.1-5.544.412-1.12 8.947 3.287a.6.6 0 0 0 .614-.126l1.672-1.574 4.687 1.722-1.232 3.355zm4.028-2.328a2.392 2.392 0 0 1-2.473 1.55l.92-2.508 1.504-.775c.235.55.253 1.17.05 1.733zm-2.01-2.06a.534.534 0 0 0-.094.017l-5.312-1.95a.596.596 0 0 0-.614.124l-1.673 1.574-11.958-4.39 2.258-6.15 22.29 8.258-4.898 2.517z"
      fill="#E3B873"></path>
    <path d="M12.13 8.703l-.526 1.42m2.815-.58l-.526 1.42m2.748-.593l-.525 1.42" stroke="#E3B873" stroke-linecap="round"></path>
  </symbol>
</svg>